<?xml version="1.0" encoding="UTF-8"?>
<svg width="128px" height="128px" viewBox="0 0 128 128" version="1.1" xmlns="http://www.w3.org/2000/svg" xmlns:xlink="http://www.w3.org/1999/xlink">
    <!-- Generator: Sketch 58 (84663) - https://sketch.com -->
    <title>Icons/DevelopLogo/Android</title>
    <desc>Created with Sketch.</desc>
    <g id="Icons/DevelopLogo/Android" stroke="none" stroke-width="1" fill="none" fill-rule="evenodd">
        <g id="Android" transform="translate(27.000000, 21.000000)" fill="#A4C639" fill-rule="nonzero">
            <path d="M60.4538656,29.0690796 L60.4538656,63.5482808 C60.4538656,66.6404213 58.0377418,69.1474904 54.9826896,69.2922902 L54.7032469,69.2988967 L50.8877294,69.2978188 L50.8885592,81.061476 C50.8885592,83.9418928 48.6660364,86.2516646 45.8228541,86.3890058 L45.5545363,86.3954681 C42.6741271,86.3954681 40.3643165,84.1729816 40.226973,81.3297944 L40.2205106,81.061476 L40.220153,69.2978188 L33.1137725,69.2978188 L33.1139242,81.061476 C33.1139242,83.9418928 30.8913991,86.2516646 28.0482165,86.3890058 L27.7798987,86.3954681 C24.8994894,86.3954681 22.5896805,84.1729816 22.4523371,81.3297944 L22.4458747,81.061476 L22.4448619,69.2978188 L18.6311895,69.2988967 C15.5390486,69.2988967 13.0319782,66.882773 12.8871784,63.8277232 L12.8805718,63.5482808 L12.8805718,29.0690796 L60.4538656,29.0690796 Z M5.56177397,28.154208 C8.44218248,28.154208 10.7519926,30.3767335 10.8893361,33.2199159 L10.8957985,33.4882337 L10.8957985,55.7065286 C10.8957985,58.6769506 8.53219524,61.0405543 5.56177397,61.0405543 C2.6813652,61.0405543 0.371555218,58.8180289 0.234211738,55.9748464 L0.227749319,55.7065286 L0.227749319,33.4882337 C0.227749319,30.5178117 2.59135243,28.154208 5.56177397,28.154208 Z M67.7730041,28.154208 C70.6534133,28.154208 72.9632213,30.3767335 73.1005647,33.2199159 L73.1070271,33.4882337 L73.1070271,55.7065286 C73.1070271,58.6769506 70.7434261,61.0405543 67.7730041,61.0405543 C64.8925946,61.0405543 62.5827843,58.8180289 62.4454408,55.9748464 L62.4389784,55.7065286 L62.4389784,33.4882337 C62.4389784,30.5178117 64.8025818,28.154208 67.7730041,28.154208 Z M51.4358516,0.160715702 C51.5619447,0.161990538 51.6794395,0.194609895 51.7952653,0.258809266 C52.1375853,0.448562469 52.2731318,0.821569065 52.1427305,1.1722551 L52.0893323,1.28804177 L48.3318239,8.07605813 C55.4193435,11.7638899 60.2516991,18.7071407 60.4476889,26.7089656 L60.4538656,27.1903279 L12.8805718,27.1903279 C12.8901665,19.1470386 17.5837277,12.1183868 24.5800854,8.30121697 L25.0026112,8.07605813 L21.2451066,1.28804177 C21.0337374,0.906721807 21.1588159,0.469646158 21.5391724,0.258809266 C21.6549976,0.194609895 21.7724931,0.162078224 21.898586,0.160715702 C22.1299535,0.158564006 22.3509889,0.257329789 22.500116,0.44921171 L22.568402,0.552876064 L26.3749195,7.41440978 C29.488799,6.03319358 32.9815022,5.25792939 36.6672189,5.25792939 C40.1225754,5.25792939 43.4082916,5.93931393 46.3712687,7.16257408 L46.9595156,7.41440978 L50.7660329,0.552876064 C50.9100554,0.29305598 51.165919,0.158183915 51.4358516,0.160715702 Z M25.6887009,14.5128284 C24.6026914,14.5128284 23.7037571,15.4117614 23.7037571,16.4977735 C23.7037571,17.583783 24.6026914,18.482716 25.6887009,18.482716 C26.7747104,18.482716 27.6736434,17.583783 27.6736434,16.4977735 C27.6736434,15.4117614 26.7747104,14.5128284 25.6887009,14.5128284 Z M47.6456052,14.5128284 C46.5595955,14.5128284 45.6606601,15.4117614 45.6606601,16.4977735 C45.6606601,17.583783 46.5595955,18.482716 47.6456052,18.482716 C48.7316121,18.482716 49.6305475,17.583783 49.6305475,16.4977735 C49.6305475,15.4117614 48.7316121,14.5128284 47.6456052,14.5128284 Z" id="Shape"></path>
        </g>
    </g>
</svg>