<?xml version="1.0" encoding="UTF-8"?>
<svg width="128px" height="128px" viewBox="0 0 128 128" version="1.1" xmlns="http://www.w3.org/2000/svg" xmlns:xlink="http://www.w3.org/1999/xlink">
    <!-- Generator: Sketch 58 (84663) - https://sketch.com -->
    <title>Icons/DevelopLogo/Ajs</title>
    <desc>Created with Sketch.</desc>
    <g id="Icons/DevelopLogo/Ajs" stroke="none" stroke-width="1" fill="none" fill-rule="evenodd">
        <g id="Ajs" transform="translate(24.000000, 21.000000)" fill-rule="nonzero">
            <g id="angular">
                <polygon id="Path" fill="#DD0031" points="40.2801406 0 40.2801406 0 40.2801406 0 0.385660921 14.2266029 6.47053323 66.9764466 40.2801406 85.7024268 40.2801406 85.7024268 40.2801406 85.7024268 74.089748 66.9764466 80.1746203 14.2266029"></polygon>
                <polygon id="Path" fill="#C3002F" points="40.2801406 0 40.2801406 9.51296938 40.2801406 9.47011816 40.2801406 52.8783974 40.2801406 52.8783974 40.2801406 85.7024268 40.2801406 85.7024268 74.089748 66.9764466 80.1746203 14.2266029"></polygon>
                <path d="M40.2801406,9.47011816 L15.3407344,65.3909517 L15.3407344,65.3909517 L24.6394477,65.3909517 L24.6394477,65.3909517 L29.6530397,52.8783974 L50.8215391,52.8783974 L55.8351311,65.3909517 L55.8351311,65.3909517 L65.1338444,65.3909517 L65.1338444,65.3909517 L40.2801406,9.47011816 L40.2801406,9.47011816 L40.2801406,9.47011816 L40.2801406,9.47011816 L40.2801406,9.47011816 Z M47.5648469,45.1651789 L32.9954343,45.1651789 L40.2801406,27.6390327 L47.5648469,45.1651789 Z" id="Shape" fill="#FFFFFF"></path>
            </g>
        </g>
    </g>
</svg>