<?xml version="1.0" encoding="utf-8"?>
<svg width="88px" height="88px" viewBox="0 0 88 88" version="1.1" xmlns:xlink="http://www.w3.org/1999/xlink" xmlns="http://www.w3.org/2000/svg">
  <desc>Created with Lunacy</desc>
  <path d="M0 0L87.4795 0L87.4795 87.4795L0 87.4795L0 0Z" id="Path" fill="#F7DF1E" stroke="none" />
  <path d="M55.2592 6.57756C52.5583 1.82103 48.8001 0.000488486 43.5739 0.000488431C36.2334 0.000488355 31.5357 4.69842 31.5357 10.8642C31.5357 17.5586 35.4702 20.7295 41.4015 23.2541L43.4561 24.1355C47.2144 25.7792 49.4457 26.7775 49.4457 29.5962C49.4457 31.9451 47.2736 33.6482 43.8673 33.6482C39.8157 33.6482 37.5256 31.5344 35.7635 28.6567L29.0698 32.5323C31.4771 37.289 36.4098 40.9295 44.0436 40.9295C51.8535 40.9295 57.6668 36.8781 57.6668 29.4787C57.6668 22.6085 53.7323 19.5554 46.7444 16.5604L44.6893 15.6796C41.1664 14.1527 39.6395 13.1542 39.6395 10.6878C39.6395 8.69165 41.1664 7.16492 43.574 7.16492C45.9228 7.16492 47.4491 8.16302 48.8585 10.6878L55.2592 6.57756ZM24.6044 28.5387L24.6044 0.470703L16.3836 0.470703L16.3836 28.4225C16.3836 32.5326 14.6805 33.5893 11.9792 33.5893C9.45775 33.5893 8.25179 32.0383 7.10076 30.0716L6.69474 29.362L6.06941e-05 33.4127C1.9378 37.523 5.75524 40.929 12.3316 40.929C19.6134 40.929 24.6044 37.0534 24.6044 28.5387Z" transform="matrix(0.9998477 -0.01745241 0.01745241 0.9998477 22.64856 40.20166)" id="Shape" fill="#000000" fill-rule="evenodd" stroke="none" />
</svg>