<?xml version="1.0" encoding="UTF-8"?>
<svg width="100px" height="100px" viewBox="0 0 128 128" version="1.1" xmlns="http://www.w3.org/2000/svg" xmlns:xlink="http://www.w3.org/1999/xlink">
    <!-- Generator: Sketch 58 (84663) - https://sketch.com -->
    <title>Icons/DevelopLogo/Python</title>
    <desc>Created with Sketch.</desc>
    <defs>
        <linearGradient x1="12.7939646%" y1="12.0393928%" x2="79.7711766%" y2="78.2008538%" id="linearGradient-1">
            <stop stop-color="#387EB8" offset="0%"></stop>
            <stop stop-color="#366994" offset="100%"></stop>
        </linearGradient>
        <linearGradient x1="18.9896686%" y1="20.5791813%" x2="90.923458%" y2="88.4290372%" id="linearGradient-2">
            <stop stop-color="#FFE052" offset="0%"></stop>
            <stop stop-color="#FFC331" offset="100%"></stop>
        </linearGradient>
    </defs>
    <g id="Icons/DevelopLogo/Python" stroke="none" stroke-width="1" fill="none" fill-rule="evenodd">
        <g id="Python" transform="translate(19.000000, 20.000000)" fill-rule="nonzero">
            <path d="M43.9959417,0.0879946226 C21.6437793,0.0879946226 23.0395924,9.75967171 23.0395924,9.75967171 L23.0645108,19.7794296 L44.3946361,19.7794296 L44.3946361,22.7878434 L14.5922648,22.7878434 C14.5922648,22.7878434 0.28912015,21.1693458 0.28912015,43.6726985 C0.28912015,66.1760466 12.7732238,65.3780304 12.7732238,65.3780304 L20.2238165,65.3780304 L20.2238165,54.9356028 C20.2238165,54.9356028 19.8222106,42.4792783 32.5085732,42.4792783 L53.6642696,42.4792783 C53.6642696,42.4792783 65.5503325,42.6709895 65.5503325,31.0174709 L65.5503325,11.7487055 C65.5503325,11.7487039 67.3549649,0.0879946226 43.9959417,0.0879946226 L43.9959417,0.0879946226 L43.9959417,0.0879946226 Z M32.2344711,6.82584675 C34.3566623,6.82584675 36.0719003,8.53726795 36.0719003,10.6547369 C36.0719003,12.7722058 34.3566623,14.4836271 32.2344711,14.4836271 C30.11228,14.4836271 28.3970421,12.7722058 28.3970421,10.6547369 C28.3970421,8.53726795 30.11228,6.82584675 32.2344711,6.82584675 L32.2344711,6.82584675 L32.2344711,6.82584675 Z" id="Shape" fill="url(#linearGradient-1)"></path>
            <path d="M45.7637143,87.6768843 C68.1158827,87.6768843 66.7200633,78.0052078 66.7200633,78.0052078 L66.6951451,67.985451 L45.3650203,67.985451 L45.3650203,64.9770374 L75.1673908,64.9770374 C75.1673908,64.9770374 89.4705351,66.5955302 89.4705351,44.0921761 C89.4705351,21.5888323 76.9864317,22.3868485 76.9864317,22.3868485 L69.535839,22.3868485 L69.535839,32.8292728 C69.535839,32.8292728 69.9374515,45.2855962 57.2510828,45.2855962 L36.0953849,45.2855962 C36.0953849,45.2855962 24.2093227,45.0938853 24.2093227,56.7474107 L24.2093227,76.0161745 C24.2093227,76.0161745 22.4046905,87.6768843 45.7637143,87.6768843 L45.7637143,87.6768843 L45.7637143,87.6768843 Z M57.5251845,80.9390328 C55.402993,80.9390328 53.6877558,79.2276124 53.6877558,77.1101429 C53.6877558,74.9926731 55.402993,73.281253 57.5251845,73.281253 C59.6473767,73.281253 61.3626135,74.9926731 61.3626135,77.1101429 C61.3626135,79.2276124 59.6473767,80.9390328 57.5251845,80.9390328 L57.5251845,80.9390328 L57.5251845,80.9390328 Z" id="Shape" fill="url(#linearGradient-2)"></path>
        </g>
    </g>
</svg>