<?xml version="1.0" encoding="utf-8"?>
<svg width="127px" height="127px" viewBox="0 0 127 127" version="1.1" xmlns:xlink="http://www.w3.org/1999/xlink" xmlns="http://www.w3.org/2000/svg">
  <desc>Created with Lunacy</desc>
  <g id="React">
    <g id="React" transform="translate(10 16)">
      <path d="M84.2145 27.1476C86.7958 14.617 85.1081 4.52245 79.3444 1.19948C73.8185 -1.98754 64.7806 1.33544 55.6528 9.2786C54.7533 10.0631 53.8739 10.8702 53.0152 11.6991C52.4402 11.1479 51.855 10.6074 51.26 10.0779C41.6938 1.58391 32.105 -1.99504 26.3475 1.33778C20.8267 4.5337 19.1915 14.024 21.5154 25.8991C21.7466 27.0751 22.0077 28.245 22.2983 29.4077C20.9416 29.7931 19.6312 30.2038 18.3776 30.6407C7.16258 34.5506 0 40.679 0 47.0352C0 53.6005 7.6886 60.1855 19.3706 64.178C20.3178 64.5002 21.2729 64.7988 22.235 65.0734C21.9225 66.3261 21.645 67.5872 21.4029 68.8554C19.1873 80.5242 20.9177 89.7894 26.4239 92.9657C32.1111 96.245 41.6563 92.8743 50.951 84.7497C51.6856 84.1074 52.4231 83.4262 53.1615 82.7122C54.0915 83.6095 55.0464 84.4808 56.025 85.3249C65.0282 93.0721 73.9197 96.2005 79.4213 93.0158C85.1034 89.7266 86.9496 79.7732 84.552 67.6632C84.3692 66.7382 84.1559 65.7935 83.9168 64.8315C84.5872 64.6337 85.245 64.4293 85.8868 64.2164C98.031 60.193 105.932 53.6882 105.932 47.0352C105.932 40.656 98.5387 34.4864 87.0977 30.5479C85.9702 30.1611 84.8331 29.8028 83.6876 29.4734C83.8775 28.7014 84.0532 27.926 84.2145 27.1476ZM56.1877 14.9269C56.9811 14.1621 57.7933 13.417 58.6237 12.6925C66.4445 5.88624 73.7538 3.19898 77.0843 5.11973C80.6313 7.16564 82.0111 15.4154 79.7823 26.2343C79.6362 26.9391 79.4774 27.6412 79.306 28.3402C74.9113 27.3262 70.1387 26.5714 65.1421 26.1026C62.2312 21.9578 59.2153 18.1889 56.1877 14.9269ZM28.6147 5.25428C25.2875 7.18018 23.9654 14.8552 25.9565 25.0299C26.1717 26.1234 26.4145 27.2117 26.6846 28.2933C31.069 27.2999 35.8382 26.5583 40.8203 26.0965C43.7256 21.9962 46.7668 18.2339 49.8441 14.9292C49.313 14.4215 48.7827 13.9307 48.2548 13.4619C39.9952 6.12815 32.159 3.20273 28.6147 5.25428ZM46.7303 25.6858C48.7884 22.9718 50.8966 20.4505 53.0166 18.1631C55.1038 20.4243 57.1942 22.9493 59.2505 25.6886C55.0794 25.4915 50.9014 25.4906 46.7303 25.6858ZM43.3205 30.4279C46.471 30.1897 49.7011 30.065 52.9665 30.065C56.2463 30.065 59.4807 30.1906 62.6302 30.4307C64.4268 33.0863 66.1292 35.8044 67.7342 38.5801C69.3482 41.3631 70.8713 44.1978 72.3009 47.0798C70.886 49.9911 69.3678 52.8512 67.7487 55.6544C66.1441 58.442 64.4492 61.1766 62.6667 63.854C59.5238 64.0786 56.2758 64.1944 52.966 64.1944C49.6697 64.1944 46.463 64.0917 43.3749 63.8915C41.5463 61.2204 39.8193 58.481 38.1978 55.6793C36.5838 52.8924 35.0763 50.0453 33.6784 47.144C35.0727 44.2419 36.5757 41.3932 38.1842 38.605L39.4099 36.5244C40.6552 34.4556 41.9593 32.4226 43.3205 30.4279ZM37.5105 31.0069C34.1524 31.4264 30.9293 31.9792 27.9068 32.6557C28.8275 35.6233 29.9551 38.6964 31.2729 41.822C32.2268 39.9729 33.2238 38.1464 34.263 36.3439C35.3036 34.5397 36.3864 32.7602 37.5105 31.0069ZM71.6507 36.3129C70.6151 34.5241 69.5411 32.7578 68.4294 31.0153C71.8096 31.4419 75.0477 32.0092 78.0885 32.7035C77.1757 35.6294 76.0379 38.6889 74.698 41.8253C73.719 39.9677 72.703 38.1299 71.6507 36.3129ZM23.5135 33.7668C22.2872 34.1135 21.0714 34.4961 19.8675 34.914C10.276 38.258 4.52502 43.1783 4.52502 47.0352C4.52502 48.8481 5.85177 51.0821 8.47902 53.3324C11.403 55.8359 15.6688 58.1302 20.8342 59.8958C21.6991 60.19 22.571 60.463 23.4493 60.7144C24.7873 56.352 26.551 51.7722 28.6766 47.1454C26.5782 42.5866 24.8393 38.0785 23.5135 33.7668ZM77.3201 47.0577C79.433 42.5055 81.1723 38.0504 82.4757 33.8333C83.5591 34.1475 84.6111 34.478 85.6247 34.8272C95.4277 38.2013 101.407 43.1909 101.407 47.0352C101.407 51.1303 94.949 56.4467 84.4634 59.9211C83.8845 60.1129 83.29 60.2981 82.6843 60.4776C81.3435 56.2334 79.5338 51.7201 77.3201 47.0577ZM52.966 37.5759C58.1905 37.5759 62.4253 41.8112 62.4253 47.0352C62.4253 52.2597 58.1905 56.495 52.966 56.495C47.742 56.495 43.5067 52.2597 43.5067 47.0352C43.5067 41.8112 47.742 37.5759 52.966 37.5759ZM71.669 57.9151C72.7345 56.0672 73.7588 54.1958 74.7411 52.3024C76.1569 55.5297 77.3506 58.652 78.2985 61.6211C75.2268 62.3219 71.9109 62.8864 68.4168 63.3055C69.5365 61.5304 70.6208 59.7333 71.669 57.9151ZM31.2781 52.4651C29.9321 55.6577 28.7797 58.7969 27.8444 61.817C30.866 62.4748 34.1378 62.9994 37.6071 63.3866C36.4554 61.5999 35.3465 59.786 34.2813 57.9465C33.2374 56.1431 32.236 54.3155 31.2781 52.4651ZM79.5395 65.9796C75.1518 66.9937 70.3136 67.7368 65.1923 68.1911C62.2809 72.4057 59.2978 76.2013 56.3129 79.4661C57.2046 80.324 58.0939 81.1351 58.9767 81.8946C66.6756 88.5199 73.8152 91.0318 77.1537 89.0993C78.7223 88.1912 79.9909 85.924 80.622 82.5233C81.3242 78.7385 81.1728 73.897 80.1128 68.5422C79.9473 67.7063 79.7551 66.8516 79.5395 65.9796ZM25.8492 69.6992C26.0744 68.52 26.3324 67.3472 26.6227 66.1822C30.9616 67.1418 35.7646 67.8324 40.8982 68.2487C43.8287 72.3729 46.8981 76.1637 49.9913 79.4834C49.3339 80.1194 48.661 80.739 47.9731 81.3418C43.863 84.9348 39.7444 87.4833 36.1144 88.7655C32.8528 89.9174 30.2551 89.9502 28.685 89.045C25.3433 87.1181 23.9547 79.678 25.8492 69.6992ZM59.3606 68.5774C57.2599 68.6711 55.1254 68.7194 52.966 68.7194C50.8643 68.7194 48.7963 68.6791 46.7682 68.5994C48.8577 71.3528 50.997 73.9125 53.1418 76.227C55.2149 73.9444 57.2979 71.3809 59.3606 68.5774Z" transform="translate(0.9516169 0.4364771)" id="Shape" fill="#53C1DE" fill-rule="evenodd" stroke="none" />
    </g>
  </g>
</svg>