<svg width="11" height="18" viewBox="0 0 11 18" fill="#DADADA" xmlns="http://www.w3.org/2000/svg">
<path d="M9.74372 0.0037452L7.31519 0C4.58683 0 2.82364 1.73871 2.82364 4.42982V6.47227H0.381862C0.170864 6.47227 0 6.63668 0 6.83949V9.79876C0 10.0016 0.171059 10.1658 0.381862 10.1658H2.82364V17.633C2.82364 17.8358 2.9945 18 3.2055 18H6.39132C6.60232 18 6.77318 17.8356 6.77318 17.633V10.1658H9.62819C9.83919 10.1658 10.0101 10.0016 10.0101 9.79876L10.0112 6.83949C10.0112 6.74211 9.97089 6.64886 9.89939 6.57994C9.82789 6.51103 9.73047 6.47227 9.62916 6.47227H6.77318V4.74086C6.77318 3.90868 6.97951 3.48622 8.10736 3.48622L9.74333 3.48566C9.95414 3.48566 10.125 3.32124 10.125 3.11863V0.370775C10.125 0.168347 9.95433 0.00411972 9.74372 0.0037452Z" fill="black"/>
</svg>
