<svg width="18" height="18" viewBox="0 0 18 18" fill="none" xmlns="http://www.w3.org/2000/svg">
<path fill-rule="evenodd" clip-rule="evenodd" d="M8.99998 0C6.55571 0 6.24926 0.0103604 5.28931 0.05416C4.33133 0.097888 3.67712 0.250007 3.10462 0.472506C2.51279 0.702507 2.01088 1.01025 1.51055 1.51058C1.01021 2.01092 0.702472 2.51283 0.47247 3.10466C0.249972 3.67716 0.0978523 4.33137 0.0541242 5.28935C0.0103247 6.24926 0 6.55575 0 9.00002C0 11.4443 0.0103247 11.7508 0.0541242 12.7107C0.0978523 13.6687 0.249972 14.3229 0.47247 14.8954C0.702472 15.4872 1.01021 15.9891 1.51055 16.4895C2.01088 16.9898 2.51279 17.2975 3.10462 17.5275C3.67712 17.75 4.33133 17.9021 5.28931 17.9459C6.24926 17.9897 6.55571 18 8.99998 18C11.4443 18 11.7507 17.9897 12.7107 17.9459C13.6686 17.9021 14.3228 17.75 14.8953 17.5275C15.4872 17.2975 15.9891 16.9898 16.4894 16.4895C16.9898 15.9891 17.2975 15.4872 17.5275 14.8954C17.75 14.3229 17.9021 13.6687 17.9458 12.7107C17.9896 11.7508 18 11.4443 18 9.00002C18 6.55575 17.9896 6.24926 17.9458 5.28935C17.9021 4.33137 17.75 3.67716 17.5275 3.10466C17.2975 2.51283 16.9898 2.01092 16.4894 1.51058C15.9891 1.01025 15.4872 0.702507 14.8953 0.472506C14.3228 0.250007 13.6686 0.097888 12.7107 0.05416C11.7507 0.0103604 11.4443 0 8.99998 0ZM8.9994 1.62158C11.4025 1.62158 11.6871 1.63073 12.6362 1.67403C13.5136 1.71408 13.9902 1.86069 14.3074 1.98391C14.7274 2.14718 15.0273 2.34224 15.3422 2.65716C15.6571 2.97208 15.8522 3.27192 16.0154 3.69199C16.1386 4.00916 16.2853 4.4857 16.3253 5.36316C16.3686 6.3122 16.3778 6.59683 16.3778 8.99995C16.3778 11.4031 16.3686 11.6877 16.3253 12.6367C16.2853 13.5142 16.1386 13.9907 16.0154 14.3079C15.8522 14.728 15.6571 15.0278 15.3422 15.3427C15.0273 15.6577 14.7274 15.8527 14.3074 16.0159C13.9902 16.1392 13.5136 16.2858 12.6362 16.3259C11.6873 16.3692 11.4027 16.3783 8.9994 16.3783C6.59614 16.3783 6.31151 16.3692 5.36264 16.3259C4.48515 16.2858 4.00861 16.1392 3.69147 16.0159C3.27137 15.8527 2.97153 15.6577 2.65661 15.3427C2.34169 15.0278 2.14663 14.728 1.9834 14.3079C1.86014 13.9907 1.71353 13.5142 1.67348 12.6367C1.63018 11.6877 1.62103 11.4031 1.62103 8.99995C1.62103 6.59683 1.63018 6.3122 1.67348 5.36319C1.71353 4.4857 1.86014 4.00916 1.9834 3.69199C2.14663 3.27192 2.34169 2.97208 2.65661 2.65716C2.97153 2.34224 3.27137 2.14718 3.69147 1.98391C4.00861 1.86069 4.48515 1.71408 5.36261 1.67403C6.31166 1.63073 6.59628 1.62158 8.9994 1.62158ZM4.37842 8.99969C4.37842 6.44724 6.44761 4.37805 9.00005 4.37805C11.5525 4.37805 13.6217 6.44724 13.6217 8.99969C13.6217 11.5521 11.5525 13.6213 9.00005 13.6213C6.44761 13.6213 4.37842 11.5521 4.37842 8.99969ZM9.0006 12.0005C7.34374 12.0005 6.00055 10.6574 6.00055 9.00063C6.00055 7.34385 7.34374 6.00073 9.0006 6.00073C10.6575 6.00073 12.0007 7.34385 12.0007 9.00063C12.0007 10.6574 10.6575 12.0005 9.0006 12.0005ZM13.8049 5.27595C14.4013 5.27595 14.8848 4.79235 14.8848 4.19582C14.8848 3.59928 14.4013 3.11572 13.8049 3.11572C13.2084 3.11572 12.7249 3.59928 12.7249 4.19582C12.7249 4.79235 13.2084 5.27595 13.8049 5.27595Z" fill="black"/>
</svg>
