<svg width="18" height="18" viewBox="0 0 18 18" fill="#DADADA" xmlns="http://www.w3.org/2000/svg">
<path fill-rule="evenodd" clip-rule="evenodd" d="M14 18V11.25C14 10.1914 12.8121 9.3058 11.7535 9.3058C10.6949 9.3058 10 10.1914 10 11.25V18H6.00001V6H10V8C10.6623 6.92857 12.3564 6.23727 13.525 6.23727C15.9965 6.23727 18 8.2786 18 10.75V18H14ZM0 18V6H4V18H0ZM4.00001 2C4.00001 3.10457 3.10458 4 2.00001 4C0.89544 4 0 3.10457 0 2C0 0.89543 0.89544 0 2.00001 0C3.10458 0 4.00001 0.89543 4.00001 2Z" fill="black"/>
</svg>
