<?xml version="1.0" encoding="UTF-8"?>
<svg xmlns="http://www.w3.org/2000/svg" xmlns:xlink="http://www.w3.org/1999/xlink" width="100pt" height="100pt" viewBox="0 0 150 150" version="1.1">
<g id="surface1">
<path style=" stroke:none;fill-rule:nonzero;fill:rgba(0, 0, 0, 1);fill-opacity:0.8;" d="M 30.945312 92.804688 C 30.914062 91.191406 31.53125 89.636719 32.660156 88.484375 C 33.789062 87.332031 35.332031 86.683594 36.945312 86.683594 C 39.445312 86.5 41.71875 88.136719 42.328125 90.570312 L 40.171875 91.246094 C 39.847656 89.753906 38.460938 88.742188 36.945312 88.890625 C 35.933594 88.890625 34.96875 89.3125 34.285156 90.058594 C 33.601562 90.800781 33.261719 91.796875 33.34375 92.804688 C 33.273438 93.8125 33.628906 94.804688 34.320312 95.539062 C 35.011719 96.273438 35.980469 96.6875 36.988281 96.675781 C 38.511719 96.742188 39.875 95.746094 40.273438 94.273438 L 42.40625 94.921875 C 41.78125 97.371094 39.515625 99.039062 36.988281 98.910156 C 35.367188 98.949219 33.804688 98.3125 32.667969 97.15625 C 31.53125 96 30.921875 94.425781 30.988281 92.804688 "/>
<path style=" stroke:none;fill-rule:nonzero;fill:rgba(0, 0, 0, 1);fill-opacity:0.8;" d="M 48.105469 92.714844 C 47.890625 92.664062 47.667969 92.636719 47.445312 92.640625 C 46.320312 92.640625 45.34375 93.195312 45.34375 94.933594 L 45.34375 98.671875 L 43.140625 98.671875 L 43.140625 90.523438 L 45.269531 90.523438 L 45.269531 91.726562 C 45.734375 90.890625 46.640625 90.398438 47.59375 90.464844 L 48.105469 90.464844 Z M 48.105469 92.714844 "/>
<path style=" stroke:none;fill-rule:nonzero;fill:rgba(0, 0, 0, 1);fill-opacity:0.8;" d="M 49.664062 101.863281 L 51.570312 97.636719 L 48.121094 90.523438 L 50.578125 90.523438 L 52.753906 95.28125 L 54.75 90.523438 L 57.105469 90.523438 L 51.988281 101.863281 Z M 49.664062 101.863281 "/>
<path style=" stroke:none;fill-rule:nonzero;fill:rgba(0, 0, 0, 1);fill-opacity:0.8;" d="M 57.613281 101.804688 L 57.613281 90.523438 L 59.761719 90.523438 L 59.761719 91.515625 C 60.332031 90.722656 61.273438 90.277344 62.25 90.34375 C 63.332031 90.347656 64.359375 90.808594 65.078125 91.617188 C 65.796875 92.425781 66.140625 93.5 66.015625 94.574219 C 66.121094 95.664062 65.765625 96.746094 65.035156 97.5625 C 64.304688 98.375 63.269531 98.847656 62.175781 98.863281 C 61.277344 98.917969 60.410156 98.550781 59.820312 97.875 L 59.820312 101.804688 Z M 61.828125 92.308594 C 61.246094 92.316406 60.695312 92.566406 60.308594 93 C 59.917969 93.433594 59.730469 94.011719 59.789062 94.589844 C 59.726562 95.171875 59.910156 95.753906 60.300781 96.195312 C 60.6875 96.636719 61.242188 96.890625 61.828125 96.898438 C 62.414062 96.890625 62.96875 96.636719 63.351562 96.195312 C 63.734375 95.753906 63.914062 95.167969 63.839844 94.589844 C 63.917969 94.007812 63.742188 93.421875 63.355469 92.980469 C 62.972656 92.539062 62.414062 92.285156 61.828125 92.28125 "/>
<path style=" stroke:none;fill-rule:nonzero;fill:rgba(0, 0, 0, 1);fill-opacity:0.8;" d="M 69.601562 90.523438 L 71.28125 90.523438 L 71.28125 92.476562 L 69.644531 92.476562 L 69.644531 95.878906 C 69.644531 96.601562 69.976562 96.824219 70.605469 96.824219 C 70.828125 96.847656 71.054688 96.847656 71.28125 96.824219 L 71.28125 98.640625 C 70.886719 98.789062 70.46875 98.855469 70.050781 98.835938 C 69.359375 98.902344 68.671875 98.664062 68.175781 98.179688 C 67.675781 97.699219 67.414062 97.023438 67.453125 96.328125 L 67.453125 92.535156 L 65.953125 92.535156 L 65.953125 90.585938 L 66.375 90.585938 C 66.722656 90.609375 67.058594 90.480469 67.300781 90.230469 C 67.546875 89.984375 67.667969 89.640625 67.636719 89.296875 L 67.636719 88.15625 L 69.613281 88.15625 Z M 69.601562 90.523438 "/>
<path style=" stroke:none;fill-rule:nonzero;fill:rgba(0, 0, 0, 1);fill-opacity:0.8;" d="M 80.128906 94.589844 C 80.167969 95.738281 79.730469 96.851562 78.921875 97.667969 C 78.113281 98.488281 77.003906 98.933594 75.855469 98.910156 C 74.707031 98.933594 73.597656 98.488281 72.789062 97.667969 C 71.980469 96.851562 71.542969 95.738281 71.578125 94.589844 C 71.542969 93.441406 71.980469 92.328125 72.789062 91.511719 C 73.597656 90.691406 74.707031 90.246094 75.855469 90.269531 C 77.003906 90.246094 78.113281 90.691406 78.921875 91.511719 C 79.730469 92.328125 80.167969 93.441406 80.128906 94.589844 M 77.925781 94.589844 C 77.988281 94 77.800781 93.414062 77.40625 92.972656 C 77.011719 92.53125 76.445312 92.28125 75.855469 92.28125 C 75.261719 92.28125 74.699219 92.53125 74.304688 92.972656 C 73.910156 93.414062 73.722656 94 73.785156 94.589844 C 73.722656 95.179688 73.910156 95.769531 74.304688 96.210938 C 74.699219 96.65625 75.261719 96.910156 75.855469 96.914062 C 76.449219 96.914062 77.015625 96.660156 77.410156 96.214844 C 77.804688 95.773438 77.992188 95.179688 77.925781 94.589844 "/>
<path style=" stroke:none;fill-rule:nonzero;fill:rgba(0, 0, 0, 1);fill-opacity:0.8;" d="M 81.03125 86.683594 L 83.234375 86.683594 L 83.234375 98.671875 L 81.03125 98.671875 Z M 81.03125 86.683594 "/>
<path style=" stroke:none;fill-rule:nonzero;fill:rgba(0, 0, 0, 1);fill-opacity:0.8;" d="M 86.640625 93.976562 L 88.648438 93.691406 C 89.113281 93.613281 89.265625 93.390625 89.265625 93.105469 C 89.265625 92.519531 88.816406 92.039062 87.886719 92.039062 C 87.117188 92.035156 86.46875 92.613281 86.386719 93.375 L 84.433594 92.953125 C 84.71875 91.285156 86.242188 90.113281 87.929688 90.269531 C 90.511719 90.269531 91.46875 91.769531 91.46875 93.375 L 91.46875 97.378906 C 91.46875 97.8125 91.503906 98.242188 91.574219 98.671875 L 89.550781 98.671875 C 89.5 98.347656 89.476562 98.019531 89.476562 97.695312 C 88.941406 98.488281 88.03125 98.941406 87.074219 98.894531 C 86.375 98.957031 85.679688 98.730469 85.152344 98.269531 C 84.621094 97.808594 84.304688 97.152344 84.269531 96.449219 C 84.300781 95.113281 85.363281 94.03125 86.699219 93.976562 M 89.324219 95.371094 L 89.324219 95.011719 L 87.480469 95.296875 C 86.921875 95.304688 86.476562 95.757812 86.476562 96.316406 C 86.472656 96.585938 86.585938 96.84375 86.789062 97.023438 C 86.988281 97.203125 87.257812 97.289062 87.523438 97.261719 C 88.03125 97.304688 88.53125 97.117188 88.882812 96.75 C 89.234375 96.382812 89.394531 95.875 89.324219 95.371094 "/>
<path style=" stroke:none;fill-rule:nonzero;fill:rgba(0, 0, 0, 1);fill-opacity:0.8;" d="M 94.996094 98.671875 L 92.804688 98.671875 L 92.804688 90.523438 L 94.933594 90.523438 L 94.933594 91.53125 C 95.453125 90.742188 96.347656 90.28125 97.289062 90.316406 C 98.140625 90.269531 98.964844 90.601562 99.546875 91.222656 C 100.125 91.847656 100.398438 92.695312 100.289062 93.539062 L 100.289062 98.671875 L 98.085938 98.671875 L 98.085938 93.914062 C 98.117188 93.496094 97.976562 93.082031 97.691406 92.777344 C 97.40625 92.46875 97.003906 92.292969 96.585938 92.296875 C 96.152344 92.292969 95.742188 92.472656 95.457031 92.796875 C 95.167969 93.117188 95.035156 93.546875 95.085938 93.976562 Z M 94.996094 98.671875 "/>
<path style=" stroke:none;fill-rule:nonzero;fill:rgba(0, 0, 0, 1);fill-opacity:0.8;" d="M 103.230469 94.589844 C 103.171875 95.179688 103.363281 95.765625 103.761719 96.207031 C 104.15625 96.648438 104.722656 96.898438 105.316406 96.898438 C 106.179688 96.929688 106.953125 96.355469 107.175781 95.519531 L 109.109375 96.164062 C 108.636719 97.851562 107.0625 98.988281 105.316406 98.910156 C 104.164062 98.929688 103.058594 98.480469 102.246094 97.664062 C 101.4375 96.851562 100.996094 95.738281 101.023438 94.589844 C 100.984375 93.449219 101.410156 92.34375 102.207031 91.527344 C 103.003906 90.710938 104.101562 90.257812 105.238281 90.269531 C 107.003906 90.164062 108.601562 91.308594 109.066406 93.015625 L 107.101562 93.691406 C 106.90625 92.859375 106.152344 92.28125 105.300781 92.308594 C 104.710938 92.308594 104.152344 92.554688 103.757812 92.988281 C 103.363281 93.421875 103.171875 94.003906 103.230469 94.589844 "/>
<path style=" stroke:none;fill-rule:nonzero;fill:rgba(0, 0, 0, 1);fill-opacity:0.8;" d="M 117.121094 96.328125 C 116.628906 97.945312 115.097656 99.011719 113.414062 98.910156 C 112.269531 98.933594 111.164062 98.476562 110.367188 97.652344 C 109.570312 96.824219 109.152344 95.707031 109.214844 94.558594 C 109.164062 93.457031 109.558594 92.378906 110.3125 91.570312 C 111.066406 90.761719 112.113281 90.292969 113.21875 90.269531 C 114.34375 90.199219 115.441406 90.632812 116.214844 91.449219 C 116.992188 92.265625 117.367188 93.382812 117.238281 94.5 C 117.238281 94.816406 117.238281 95.144531 117.238281 95.175781 L 111.40625 95.175781 C 111.476562 96.246094 112.386719 97.0625 113.460938 97.019531 C 114.289062 97.089844 115.058594 96.582031 115.320312 95.789062 Z M 115.066406 93.660156 C 115.058594 93.199219 114.859375 92.761719 114.511719 92.457031 C 114.167969 92.148438 113.707031 92.003906 113.25 92.054688 C 112.3125 92.019531 111.515625 92.726562 111.433594 93.660156 Z M 115.066406 93.660156 "/>
<path style=" stroke:none;fill-rule:nonzero;fill:rgba(0, 0, 0, 1);fill-opacity:0.8;" d="M 123.121094 92.714844 C 122.898438 92.664062 122.671875 92.636719 122.445312 92.640625 C 121.320312 92.640625 120.34375 93.195312 120.34375 94.933594 L 120.34375 98.671875 L 118.15625 98.671875 L 118.15625 90.523438 L 120.285156 90.523438 L 120.285156 91.726562 C 120.738281 90.886719 121.644531 90.390625 122.59375 90.464844 L 123.121094 90.464844 Z M 123.121094 92.714844 "/>
<path style=" stroke:none;fill-rule:nonzero;fill:rgba(0, 0, 0, 1);fill-opacity:0.8;" d="M 76.320312 37.183594 C 65.152344 37.191406 56.101562 46.238281 56.085938 57.40625 C 56.09375 68.578125 65.148438 77.632812 76.320312 77.640625 C 87.484375 77.625 96.53125 68.570312 96.539062 57.40625 C 96.523438 46.246094 87.480469 37.203125 76.320312 37.183594 M 76.320312 75.253906 C 66.46875 75.238281 58.488281 67.257812 58.46875 57.40625 C 58.488281 47.554688 66.46875 39.570312 76.320312 39.554688 C 86.171875 39.570312 94.152344 47.554688 94.171875 57.40625 C 94.152344 67.257812 86.171875 75.238281 76.320312 75.253906 "/>
<path style=" stroke:none;fill-rule:nonzero;fill:rgba(0, 0, 0, 1);fill-opacity:0.8;" d="M 83.070312 61.410156 C 81.695312 63.152344 79.617188 64.195312 77.398438 64.261719 C 75.507812 64.230469 73.707031 63.4375 72.40625 62.0625 C 71.105469 60.6875 70.410156 58.847656 70.484375 56.953125 L 70.484375 56.878906 C 70.402344 55.015625 71.074219 53.199219 72.347656 51.839844 C 73.621094 50.476562 75.386719 49.679688 77.25 49.636719 C 79.453125 49.730469 81.511719 50.761719 82.90625 52.46875 L 83.386719 52.949219 L 85.558594 50.714844 L 85.125 50.25 C 83.152344 47.976562 80.289062 46.667969 77.28125 46.664062 C 73.339844 46.710938 69.789062 49.054688 68.203125 52.664062 L 63.703125 52.664062 C 63.40625 52.660156 63.117188 52.777344 62.90625 52.988281 C 62.691406 53.203125 62.574219 53.492188 62.578125 53.789062 L 62.578125 54 C 62.574219 54.300781 62.691406 54.589844 62.90625 54.800781 C 63.117188 55.011719 63.40625 55.128906 63.703125 55.125 L 67.394531 55.125 C 67.273438 55.753906 67.214844 56.390625 67.214844 57.03125 C 67.214844 57.238281 67.214844 57.449219 67.214844 57.660156 L 63.78125 57.660156 C 63.480469 57.65625 63.191406 57.773438 62.980469 57.984375 C 62.769531 58.195312 62.652344 58.484375 62.65625 58.785156 L 62.65625 59.011719 C 62.65625 59.632812 63.160156 60.136719 63.78125 60.136719 L 67.769531 60.136719 C 69.054688 64.34375 72.925781 67.230469 77.324219 67.261719 C 80.449219 67.285156 83.402344 65.855469 85.320312 63.390625 L 85.769531 62.894531 L 83.550781 60.945312 Z M 83.070312 61.410156 "/>
</g>
</svg>
