<?xml version="1.0" encoding="UTF-8"?>
<svg xmlns="http://www.w3.org/2000/svg" xmlns:xlink="http://www.w3.org/1999/xlink" width="100pt" height="100pt" viewBox="0 0 100 100" version="1.1">
<g id="surface1">
<path style=" stroke:none;fill-rule:nonzero;fill:orange;fill-opacity:1;" d="M 20.628906 61.871094 C 20.609375 60.796875 21.019531 59.757812 21.773438 58.988281 C 22.527344 58.222656 23.554688 57.789062 24.628906 57.789062 C 26.296875 57.667969 27.8125 58.757812 28.21875 60.378906 L 26.78125 60.828125 C 26.566406 59.835938 25.640625 59.160156 24.628906 59.261719 C 23.957031 59.261719 23.3125 59.542969 22.859375 60.039062 C 22.402344 60.535156 22.175781 61.199219 22.230469 61.871094 C 22.183594 62.542969 22.417969 63.203125 22.878906 63.691406 C 23.339844 64.183594 23.988281 64.457031 24.660156 64.449219 C 25.675781 64.496094 26.585938 63.828125 26.851562 62.851562 L 28.269531 63.28125 C 27.851562 64.914062 26.34375 66.027344 24.660156 65.941406 C 23.578125 65.964844 22.535156 65.542969 21.777344 64.773438 C 21.019531 64 20.617188 62.949219 20.660156 61.871094 "/>
<path style=" stroke:none;fill-rule:nonzero;fill:orange;fill-opacity:1;" d="M 32.070312 61.808594 C 31.925781 61.773438 31.777344 61.757812 31.628906 61.761719 C 30.878906 61.761719 30.230469 62.128906 30.230469 63.289062 L 30.230469 65.78125 L 28.761719 65.78125 L 28.761719 60.351562 L 30.179688 60.351562 L 30.179688 61.148438 C 30.488281 60.59375 31.09375 60.265625 31.730469 60.308594 L 32.070312 60.308594 Z M 32.070312 61.808594 "/>
<path style=" stroke:none;fill-rule:nonzero;fill:orange;fill-opacity:1;" d="M 33.109375 67.910156 L 34.378906 65.089844 L 32.078125 60.351562 L 33.71875 60.351562 L 35.171875 63.519531 L 36.5 60.351562 L 38.070312 60.351562 L 34.660156 67.910156 Z M 33.109375 67.910156 "/>
<path style=" stroke:none;fill-rule:nonzero;fill:orange;fill-opacity:1;" d="M 38.410156 67.871094 L 38.410156 60.351562 L 39.839844 60.351562 L 39.839844 61.011719 C 40.222656 60.480469 40.847656 60.1875 41.5 60.230469 C 42.222656 60.230469 42.90625 60.539062 43.386719 61.078125 C 43.867188 61.617188 44.09375 62.332031 44.011719 63.050781 C 44.078125 63.777344 43.84375 64.496094 43.355469 65.039062 C 42.871094 65.585938 42.179688 65.898438 41.449219 65.910156 C 40.851562 65.945312 40.273438 65.703125 39.878906 65.25 L 39.878906 67.871094 Z M 41.21875 61.539062 C 40.832031 61.542969 40.464844 61.710938 40.203125 62 C 39.945312 62.289062 39.820312 62.675781 39.859375 63.058594 C 39.816406 63.449219 39.941406 63.835938 40.199219 64.128906 C 40.457031 64.421875 40.828125 64.59375 41.21875 64.601562 C 41.609375 64.59375 41.976562 64.421875 42.234375 64.128906 C 42.488281 63.835938 42.609375 63.445312 42.558594 63.058594 C 42.613281 62.671875 42.496094 62.28125 42.238281 61.988281 C 41.980469 61.691406 41.609375 61.523438 41.21875 61.519531 "/>
<path style=" stroke:none;fill-rule:nonzero;fill:orange;fill-opacity:1;" d="M 46.398438 60.351562 L 47.519531 60.351562 L 47.519531 61.648438 L 46.429688 61.648438 L 46.429688 63.921875 C 46.429688 64.398438 46.648438 64.550781 47.070312 64.550781 C 47.21875 64.566406 47.371094 64.566406 47.519531 64.550781 L 47.519531 65.761719 C 47.257812 65.859375 46.980469 65.90625 46.699219 65.890625 C 46.238281 65.933594 45.78125 65.777344 45.449219 65.453125 C 45.117188 65.132812 44.941406 64.683594 44.96875 64.21875 L 44.96875 61.691406 L 43.96875 61.691406 L 43.96875 60.390625 L 44.25 60.390625 C 44.480469 60.40625 44.707031 60.320312 44.867188 60.152344 C 45.03125 59.988281 45.109375 59.761719 45.089844 59.53125 L 45.089844 58.769531 L 46.410156 58.769531 Z M 46.398438 60.351562 "/>
<path style=" stroke:none;fill-rule:nonzero;fill:orange;fill-opacity:1;" d="M 53.421875 63.058594 C 53.445312 63.824219 53.152344 64.570312 52.613281 65.113281 C 52.074219 65.65625 51.335938 65.957031 50.570312 65.941406 C 49.804688 65.957031 49.0625 65.65625 48.527344 65.113281 C 47.988281 64.570312 47.695312 63.824219 47.71875 63.058594 C 47.695312 62.292969 47.988281 61.550781 48.527344 61.007812 C 49.0625 60.460938 49.804688 60.164062 50.570312 60.179688 C 51.335938 60.164062 52.074219 60.460938 52.613281 61.007812 C 53.152344 61.550781 53.445312 62.292969 53.421875 63.058594 M 51.949219 63.058594 C 51.992188 62.667969 51.867188 62.277344 51.601562 61.980469 C 51.339844 61.6875 50.964844 61.519531 50.570312 61.519531 C 50.175781 61.519531 49.800781 61.6875 49.535156 61.980469 C 49.273438 62.277344 49.148438 62.667969 49.191406 63.058594 C 49.148438 63.453125 49.273438 63.847656 49.535156 64.140625 C 49.800781 64.4375 50.175781 64.605469 50.570312 64.609375 C 50.964844 64.609375 51.34375 64.441406 51.605469 64.144531 C 51.871094 63.847656 51.996094 63.453125 51.949219 63.058594 "/>
<path style=" stroke:none;fill-rule:nonzero;fill:orange;fill-opacity:1;" d="M 54.019531 57.789062 L 55.488281 57.789062 L 55.488281 65.78125 L 54.019531 65.78125 Z M 54.019531 57.789062 "/>
<path style=" stroke:none;fill-rule:nonzero;fill:orange;fill-opacity:1;" d="M 57.761719 62.648438 L 59.101562 62.460938 C 59.410156 62.410156 59.511719 62.261719 59.511719 62.070312 C 59.511719 61.679688 59.210938 61.359375 58.589844 61.359375 C 58.078125 61.355469 57.644531 61.742188 57.589844 62.25 L 56.289062 61.96875 C 56.480469 60.855469 57.496094 60.074219 58.621094 60.179688 C 60.339844 60.179688 60.980469 61.179688 60.980469 62.25 L 60.980469 64.921875 C 60.980469 65.207031 61.003906 65.496094 61.050781 65.78125 L 59.699219 65.78125 C 59.667969 65.566406 59.648438 65.347656 59.648438 65.128906 C 59.292969 65.660156 58.6875 65.960938 58.050781 65.929688 C 57.582031 65.972656 57.121094 65.820312 56.769531 65.511719 C 56.414062 65.207031 56.203125 64.765625 56.179688 64.300781 C 56.199219 63.410156 56.910156 62.6875 57.800781 62.648438 M 59.550781 63.578125 L 59.550781 63.339844 L 58.320312 63.53125 C 57.949219 63.535156 57.648438 63.839844 57.648438 64.210938 C 57.648438 64.390625 57.726562 64.5625 57.859375 64.683594 C 57.992188 64.800781 58.171875 64.859375 58.351562 64.839844 C 58.6875 64.871094 59.019531 64.746094 59.253906 64.5 C 59.488281 64.253906 59.597656 63.914062 59.550781 63.578125 "/>
<path style=" stroke:none;fill-rule:nonzero;fill:orange;fill-opacity:1;" d="M 63.328125 65.78125 L 61.871094 65.78125 L 61.871094 60.351562 L 63.289062 60.351562 L 63.289062 61.019531 C 63.636719 60.492188 64.230469 60.1875 64.859375 60.210938 C 65.425781 60.179688 65.976562 60.402344 66.363281 60.816406 C 66.75 61.230469 66.933594 61.796875 66.859375 62.359375 L 66.859375 65.78125 L 65.390625 65.78125 L 65.390625 62.609375 C 65.414062 62.332031 65.316406 62.054688 65.128906 61.851562 C 64.9375 61.644531 64.667969 61.527344 64.390625 61.53125 C 64.101562 61.527344 63.828125 61.648438 63.636719 61.863281 C 63.445312 62.078125 63.355469 62.363281 63.390625 62.648438 Z M 63.328125 65.78125 "/>
<path style=" stroke:none;fill-rule:nonzero;fill:orange;fill-opacity:1;" d="M 68.820312 63.058594 C 68.78125 63.453125 68.910156 63.84375 69.171875 64.136719 C 69.4375 64.429688 69.816406 64.597656 70.210938 64.601562 C 70.789062 64.621094 71.300781 64.238281 71.449219 63.679688 L 72.738281 64.109375 C 72.425781 65.234375 71.375 65.992188 70.210938 65.941406 C 69.445312 65.953125 68.707031 65.652344 68.164062 65.109375 C 67.625 64.566406 67.332031 63.824219 67.351562 63.058594 C 67.324219 62.300781 67.609375 61.5625 68.136719 61.019531 C 68.667969 60.472656 69.398438 60.171875 70.160156 60.179688 C 71.335938 60.109375 72.398438 60.875 72.710938 62.011719 L 71.398438 62.460938 C 71.269531 61.90625 70.769531 61.519531 70.199219 61.539062 C 69.808594 61.539062 69.433594 61.703125 69.171875 61.992188 C 68.90625 62.28125 68.78125 62.671875 68.820312 63.058594 "/>
<path style=" stroke:none;fill-rule:nonzero;fill:orange;fill-opacity:1;" d="M 78.078125 64.21875 C 77.753906 65.296875 76.730469 66.007812 75.609375 65.941406 C 74.84375 65.953125 74.109375 65.652344 73.578125 65.101562 C 73.046875 64.550781 72.769531 63.804688 72.808594 63.039062 C 72.773438 62.304688 73.039062 61.585938 73.542969 61.046875 C 74.042969 60.507812 74.742188 60.195312 75.480469 60.179688 C 76.230469 60.132812 76.960938 60.421875 77.476562 60.964844 C 77.996094 61.507812 78.246094 62.253906 78.160156 63 C 78.160156 63.210938 78.160156 63.429688 78.160156 63.449219 L 74.269531 63.449219 C 74.316406 64.164062 74.925781 64.707031 75.640625 64.679688 C 76.191406 64.726562 76.707031 64.386719 76.878906 63.859375 Z M 76.710938 62.441406 C 76.707031 62.132812 76.574219 61.839844 76.34375 61.636719 C 76.113281 61.433594 75.804688 61.335938 75.5 61.371094 C 74.875 61.347656 74.34375 61.816406 74.289062 62.441406 Z M 76.710938 62.441406 "/>
<path style=" stroke:none;fill-rule:nonzero;fill:orange;fill-opacity:1;" d="M 82.078125 61.808594 C 81.933594 61.773438 81.78125 61.757812 81.628906 61.761719 C 80.878906 61.761719 80.230469 62.128906 80.230469 63.289062 L 80.230469 65.78125 L 78.769531 65.78125 L 78.769531 60.351562 L 80.191406 60.351562 L 80.191406 61.148438 C 80.492188 60.589844 81.097656 60.261719 81.730469 60.308594 L 82.078125 60.308594 Z M 82.078125 61.808594 "/>
<path style=" stroke:none;fill-rule:nonzero;fill:orange;fill-opacity:1;" d="M 50.878906 24.789062 C 43.4375 24.796875 37.402344 30.824219 37.390625 38.269531 C 37.394531 45.71875 43.433594 51.753906 50.878906 51.761719 C 58.324219 51.75 64.355469 45.714844 64.359375 38.269531 C 64.347656 30.828125 58.320312 24.800781 50.878906 24.789062 M 50.878906 50.171875 C 44.3125 50.160156 38.992188 44.835938 38.980469 38.269531 C 38.992188 31.703125 44.3125 26.382812 50.878906 26.371094 C 57.449219 26.382812 62.769531 31.703125 62.78125 38.269531 C 62.769531 44.835938 57.449219 50.160156 50.878906 50.171875 "/>
<path style=" stroke:none;fill-rule:nonzero;fill:orange;fill-opacity:1;" d="M 55.378906 40.941406 C 54.464844 42.101562 53.078125 42.796875 51.601562 42.839844 C 50.339844 42.820312 49.136719 42.292969 48.269531 41.375 C 47.402344 40.457031 46.941406 39.230469 46.988281 37.96875 L 46.988281 37.921875 C 46.9375 36.679688 47.382812 35.46875 48.230469 34.558594 C 49.078125 33.648438 50.257812 33.121094 51.5 33.089844 C 52.96875 33.152344 54.339844 33.839844 55.269531 34.980469 L 55.589844 35.300781 L 57.039062 33.808594 L 56.75 33.5 C 55.433594 31.984375 53.527344 31.113281 51.519531 31.109375 C 48.894531 31.140625 46.527344 32.703125 45.46875 35.109375 L 42.46875 35.109375 C 42.269531 35.105469 42.078125 35.183594 41.9375 35.328125 C 41.796875 35.46875 41.71875 35.660156 41.71875 35.859375 L 41.71875 36 C 41.71875 36.199219 41.796875 36.390625 41.9375 36.535156 C 42.078125 36.675781 42.269531 36.753906 42.46875 36.75 L 44.929688 36.75 C 44.847656 37.167969 44.808594 37.59375 44.808594 38.019531 C 44.808594 38.160156 44.808594 38.300781 44.808594 38.441406 L 42.519531 38.441406 C 42.320312 38.4375 42.128906 38.515625 41.988281 38.65625 C 41.84375 38.796875 41.765625 38.992188 41.769531 39.191406 L 41.769531 39.339844 C 41.769531 39.753906 42.105469 40.089844 42.519531 40.089844 L 45.179688 40.089844 C 46.035156 42.894531 48.617188 44.820312 51.550781 44.839844 C 53.632812 44.859375 55.601562 43.902344 56.878906 42.261719 L 57.179688 41.929688 L 55.699219 40.628906 Z M 55.378906 40.941406 "/>
</g>
</svg>
