<svg height="30pt" viewBox="-72 0 448 448" width="30pt" xmlns="http://www.w3.org/2000/svg"><path d="m192 96c0 22.089844-17.910156 40-40 40s-40-17.910156-40-40 17.910156-40 40-40 40 17.910156 40 40zm0 0"/><path d="m248 32h-192c0 13.601562-10.398438 24-24 24v336c13.601562 0 24 10.398438 24 24h192c0-13.601562 10.398438-24 24-24v-336c-13.601562 0-24-10.398438-24-24zm-96 8c31.199219 0 56 24.800781 56 56 0 18.398438-8.800781 35.199219-24 45.601562v72.796876l-32-21.597657-32 21.597657v-72.796876c-25.601562-17.601562-32-52.800781-13.601562-77.601562 10.402343-15.199219 27.203124-24 45.601562-24zm-64 200h128v16h-128zm40 152h-48v-16h48zm96 0h-48v-16h48zm32-40h-208v-16h208zm0-32h-208v-16h208zm0-32h-208v-16h208zm0 0"/><path d="m136 149.601562v35.199219l16-10.402343 16 10.402343v-35.199219c-10.398438 3.199219-21.601562 3.199219-32 0zm0 0"/><path d="m0 0v448h304v-448zm288 408h-16c-4.800781 0-8 3.199219-8 8v16h-224v-16c0-4.800781-3.199219-8-8-8h-16v-368h16c4.800781 0 8-3.199219 8-8v-16h224v16c0 4.800781 3.199219 8 8 8h16zm0 0"/></svg>