<svg width="70" height="62" viewBox="0 0 70 62" fill="none" xmlns="http://www.w3.org/2000/svg">
<line x1="34.75" y1="62" x2="34.75" y2="22" stroke="rgba(0, 0, 0, 0.5)" stroke-width="0.5"/>
<path d="M3.32 3.74C2.32 3.49 1.65 3.35 1.65 2.57C1.65 2.04 2.16 1.72 3.01 1.72C4 1.72 4.52 2.16 4.63 2.99H5.82C5.72 1.52 4.58 0.7 3.01 0.7C1.45 0.7 0.47 1.41 0.47 2.68C0.47 4.04 1.68 4.47 2.8 4.75C4.21 5.1 4.82 5.26 4.82 6.11C4.82 6.66 4.41 7.13 3.35 7.13C2.07 7.13 1.45 6.53 1.39 5.62H0.2C0.27 7.24 1.6 8.15 3.35 8.15C5.15 8.15 6.01 7.2 6.01 6.06C6.01 4.46 4.85 4.13 3.32 3.74ZM10.3677 4.76H11.4177C11.2877 3.6 10.4177 2.75 9.08766 2.75C7.56766 2.75 6.57766 3.85 6.57766 5.45C6.57766 7.05 7.56766 8.15 9.09766 8.15C10.4277 8.15 11.3377 7.28 11.4177 6.1H10.3677C10.3277 6.67 9.99766 7.29 9.09766 7.29C8.05766 7.29 7.62766 6.41 7.62766 5.45C7.62766 4.49 8.06766 3.61 9.09766 3.61C9.99766 3.61 10.3277 4.24 10.3677 4.76ZM14.5413 2.77C13.8713 2.77 13.4513 3.21 13.1813 3.85H13.1613V2.89H12.1113V8H13.1613V5.39C13.1613 4.3 13.9713 3.62 14.9813 3.79H15.0013V2.8C14.8513 2.78 14.7213 2.77 14.5413 2.77ZM17.8098 8.15C16.2098 8.15 15.2398 7.04 15.2398 5.45C15.2398 3.86 16.2098 2.75 17.8098 2.75C19.4098 2.75 20.3798 3.86 20.3798 5.45C20.3798 7.04 19.4098 8.15 17.8098 8.15ZM17.8098 7.29C18.8098 7.29 19.3298 6.5 19.3298 5.45C19.3298 4.39 18.8098 3.61 17.8098 3.61C16.8098 3.61 16.2898 4.39 16.2898 5.45C16.2898 6.5 16.8098 7.29 17.8098 7.29ZM21.1255 0.85V8H22.1855V0.85H21.1255ZM23.147 0.85V8H24.207V0.85H23.147ZM29.5709 3.75V2.89H28.6109V1.28H27.5509V2.89H26.8109V3.75H27.5509V6.61C27.5509 7.69 28.0109 8.07 28.8509 8.07C29.1309 8.07 29.3609 8.04 29.5709 7.99V7.13C28.8909 7.17 28.6109 7.1 28.6109 6.52V3.75H29.5709ZM32.5852 8.15C30.9852 8.15 30.0152 7.04 30.0152 5.45C30.0152 3.86 30.9852 2.75 32.5852 2.75C34.1852 2.75 35.1552 3.86 35.1552 5.45C35.1552 7.04 34.1852 8.15 32.5852 8.15ZM32.5852 7.29C33.5852 7.29 34.1052 6.5 34.1052 5.45C34.1052 4.39 33.5852 3.61 32.5852 3.61C31.5852 3.61 31.0652 4.39 31.0652 5.45C31.0652 6.5 31.5852 7.29 32.5852 7.29ZM40.0452 7.29C39.1152 7.29 38.5652 6.58 38.5652 5.72H42.4852C42.4852 3.9 41.6752 2.75 40.0252 2.75C38.4852 2.75 37.5152 3.79 37.5152 5.45C37.5152 7.05 38.4852 8.15 40.0752 8.15C41.3852 8.15 42.1452 7.41 42.4052 6.44H41.3552C41.2652 6.75 40.9152 7.29 40.0452 7.29ZM40.0252 3.58C40.8752 3.58 41.4352 4.15 41.4352 4.94H38.5652C38.5652 4.15 39.1752 3.58 40.0252 3.58ZM42.6619 2.89L44.3919 5.39L42.4819 8H43.7119L45.0119 6.08H45.0319L46.3519 8H47.5719L45.6619 5.39L47.3819 2.89H46.1919L45.0319 4.69H45.0119L43.8519 2.89H42.6619ZM50.7867 2.75C49.9867 2.75 49.4867 3.13 49.2167 3.49H49.1967V2.89H48.1367V9.74H49.1967V7.39H49.2167C49.4867 7.77 49.9867 8.15 50.7867 8.15C52.0867 8.15 53.0567 7.13 53.0567 5.45C53.0567 3.77 52.0867 2.75 50.7867 2.75ZM50.5867 7.29C49.7367 7.29 49.2067 6.58 49.2067 5.45C49.2067 4.31 49.7367 3.61 50.5867 3.61C51.5067 3.61 51.9967 4.45 51.9967 5.45C51.9967 6.45 51.5067 7.29 50.5867 7.29ZM53.8403 0.85V8H54.9003V0.85H53.8403ZM58.2199 8.15C56.6199 8.15 55.6499 7.04 55.6499 5.45C55.6499 3.86 56.6199 2.75 58.2199 2.75C59.8199 2.75 60.7899 3.86 60.7899 5.45C60.7899 7.04 59.8199 8.15 58.2199 8.15ZM58.2199 7.29C59.2199 7.29 59.7399 6.5 59.7399 5.45C59.7399 4.39 59.2199 3.61 58.2199 3.61C57.2199 3.61 56.6999 4.39 56.6999 5.45C56.6999 6.5 57.2199 7.29 58.2199 7.29ZM63.9456 2.77C63.2756 2.77 62.8556 3.21 62.5856 3.85H62.5656V2.89H61.5156V8H62.5656V5.39C62.5656 4.3 63.3756 3.62 64.3856 3.79H64.4056V2.8C64.2556 2.78 64.1256 2.77 63.9456 2.77ZM67.1741 7.29C66.2441 7.29 65.6941 6.58 65.6941 5.72H69.6141C69.6141 3.9 68.8041 2.75 67.1541 2.75C65.6141 2.75 64.6441 3.79 64.6441 5.45C64.6441 7.05 65.6141 8.15 67.2041 8.15C68.5141 8.15 69.2741 7.41 69.5341 6.44H68.4841C68.3941 6.75 68.0441 7.29 67.1741 7.29ZM67.1541 3.58C68.0041 3.58 68.5641 4.15 68.5641 4.94H65.6941C65.6941 4.15 66.3041 3.58 67.1541 3.58Z" fill="rgba(0, 0, 0, 0.5)"/>
</svg>
