<svg width="10" height="173" viewBox="0 0 10 173" fill="none" xmlns="http://www.w3.org/2000/svg">
<path d="M4.08 171.116H1.38V166.136H0.42L0.42 172.196H9V165.992H8.04V171.116H5.04V166.712H4.08V171.116ZM9 163.731V162.651H1.944V162.627L9 160.035V159.075L1.944 156.483V156.459H9V155.379H0.42V156.855L7.548 159.543V159.567L0.42 162.255V163.731H9ZM9 152.77V151.69H5.412V149.362C5.412 147.79 4.716 146.578 2.916 146.578C1.116 146.578 0.42 147.79 0.42 149.362V152.77H9ZM1.38 151.69L1.38 149.242C1.38 148.174 1.872 147.658 2.916 147.658C3.96 147.658 4.452 148.174 4.452 149.242L4.452 151.69H1.38ZM9.168 140.547C9.168 138.027 7.284 136.347 4.704 136.347C2.124 136.347 0.252 138.027 0.252 140.547C0.252 143.067 2.124 144.747 4.704 144.747C7.284 144.747 9.168 143.067 9.168 140.547ZM8.208 140.547C8.208 142.707 6.552 143.667 4.704 143.667C2.856 143.667 1.212 142.707 1.212 140.547C1.212 138.387 2.856 137.427 4.704 137.427C6.552 137.427 8.208 138.387 8.208 140.547ZM0.42 135.059L9 132.935V131.735L1.644 129.755V129.731L9 127.751V126.551L0.42 124.427V125.567L7.452 127.199V127.223L0.42 129.143V130.343L7.452 132.263V132.287L0.42 133.919V135.059ZM4.08 121.374H1.38V116.394H0.42L0.42 122.454H9V116.25H8.04V121.374H5.04V116.97H4.08V121.374ZM9 113.989V112.909H5.532V110.449C5.532 108.277 8.64 109.093 9 108.721V107.557H8.928C8.784 108.001 5.412 107.305 5.04 109.213H5.016C4.776 108.265 4.092 107.677 2.856 107.677C1.332 107.677 0.42 108.817 0.42 110.509L0.42 113.989H9ZM1.38 112.909V110.761C1.38 109.873 1.488 108.757 2.976 108.757C4.464 108.757 4.572 109.873 4.572 110.761V112.909H1.38ZM0.42 105.371H9V104.291H0.42V105.371ZM9 101.665V100.585H1.956V100.561L9 96.2767V94.9567H0.42V96.0367H7.488V96.0607L0.42 100.345V101.665H9ZM3.012 86.0938V85.0138C1.38 85.3138 0.252 86.4538 0.252 88.6258C0.252 91.0018 2.124 92.6098 4.704 92.6098C7.296 92.6098 9.168 91.2418 9.168 88.7458C9.168 87.4258 8.688 86.6218 7.788 85.9738V85.9498L9 85.5898V84.8698H4.536V88.7458H5.496V85.9498C7.104 85.9498 8.208 87.2098 8.208 88.7458C8.208 90.9058 6.324 91.5298 4.704 91.5298C3.096 91.5298 1.212 90.6658 1.212 88.6258C1.212 87.3298 1.788 86.3458 3.012 86.0938ZM9 76.6612V75.5812H1.38V72.7253H0.42L0.42 79.5172H1.38L1.38 76.6612H9ZM0.42 70.653H9V69.573H5.028V64.989H9V63.909H0.42V64.989H4.068V69.573H0.42V70.653ZM4.08 60.2176H1.38V55.2376H0.42L0.42 61.2976H9V55.0936H8.04V60.2176H5.04V55.8136H4.08V60.2176ZM4.164 48.3504H1.38V43.6104H0.42L0.42 49.4304H9V48.3504H5.124V44.5224H4.164V48.3504ZM6.144 35.0609H0.42V36.1409H6.144C7.536 36.1409 8.208 36.8609 8.208 38.3489C8.208 39.8369 7.536 40.5569 6.144 40.5569H0.42V41.6369H6.144C7.896 41.6369 9.168 40.6409 9.168 38.3489C9.168 36.0569 7.896 35.0609 6.144 35.0609ZM9 30.2784V29.1984H1.38V26.3424H0.42L0.42 33.1344H1.38V30.2784H9ZM6.144 17.8382H0.42V18.9182H6.144C7.536 18.9182 8.208 19.6382 8.208 21.1262C8.208 22.6142 7.536 23.3342 6.144 23.3342H0.42L0.42 24.4142H6.144C7.896 24.4142 9.168 23.4182 9.168 21.1262C9.168 18.8342 7.896 17.8382 6.144 17.8382ZM9 15.3718V14.2918H5.532L5.532 11.8318C5.532 9.65978 8.64 10.4758 9 10.1038V8.93978H8.928C8.784 9.38378 5.412 8.68778 5.04 10.5958H5.016C4.776 9.64778 4.092 9.05978 2.856 9.05978C1.332 9.05978 0.42 10.1998 0.42 11.8918V15.3718H9ZM1.38 14.2918V12.1438C1.38 11.2558 1.488 10.1398 2.976 10.1398C4.464 10.1398 4.572 11.2558 4.572 12.1438V14.2918H1.38ZM4.08 5.69803H1.38V0.718031H0.42L0.42 6.77803H9V0.574031H8.04V5.69803H5.04V1.29403H4.08V5.69803Z" fill="#070928"/>
</svg>
